<?xml version="1.0" standalone="no"?>
<!DOCTYPE svg PUBLIC "-//W3C//DTD SVG 20010904//EN"
 "http://www.w3.org/TR/2001/REC-SVG-20010904/DTD/svg10.dtd">
<svg version="1.0" xmlns="http://www.w3.org/2000/svg"
 width="1280.000000pt" height="900.000000pt" viewBox="0 0 1280.000000 900.000000"
 preserveAspectRatio="xMidYMid meet">
<g transform="translate(0.000000,900.000000) scale(0.100000,-0.100000)"
fill="#000000" stroke="none">
<path d="M12080 8768 c-2175 -1127 -3413 -1862 -4442 -2635 -76 -57 -144 -103
-152 -103 -7 0 -36 35 -62 78 -231 372 -581 754 -940 1023 -222 168 -395 274
-654 403 -430 213 -838 335 -1345 403 -190 25 -715 25 -910 0 -571 -74 -1077
-240 -1545 -505 -771 -436 -1351 -1086 -1701 -1904 -168 -393 -263 -781 -308
-1261 -26 -269 -26 -295 0 -564 58 -621 214 -1138 491 -1635 485 -868 1252
-1507 2199 -1833 249 -85 526 -153 754 -184 136 -19 491 -51 565 -51 98 0 470
36 625 61 1111 178 2095 799 2707 1709 741 1104 888 2463 397 3681 -32 81 -59
153 -59 160 0 29 522 406 1000 724 904 600 1972 1207 3570 2030 201 103 370
193 377 199 9 8 -10 54 -86 200 -53 105 -102 191 -107 192 -5 1 -173 -83 -374
-188z m-7615 -1062 c348 -46 666 -127 970 -247 133 -52 448 -208 565 -279 427
-260 772 -570 1060 -955 89 -118 230 -330 230 -344 0 -13 -21 -31 -150 -136
-591 -478 -1223 -1083 -1810 -1735 -247 -274 -645 -746 -934 -1107 -76 -95
-144 -173 -150 -173 -7 0 -280 641 -606 1425 -327 784 -599 1425 -603 1425 -5
0 -247 -140 -537 -311 -499 -294 -528 -313 -518 -333 56 -107 212 -356 222
-354 6 2 149 84 316 182 241 142 306 177 313 165 4 -8 295 -702 646 -1543 351
-842 642 -1531 647 -1533 6 -2 109 124 229 279 757 972 1266 1565 1865 2172
354 359 631 617 960 897 236 200 300 250 318 247 21 -4 107 -227 168 -438 166
-572 193 -1160 79 -1727 -210 -1047 -836 -1943 -1738 -2486 -505 -304 -1070
-487 -1663 -541 -913 -83 -1861 194 -2629 768 -523 391 -957 964 -1205 1591
-368 929 -357 1907 32 2818 298 701 764 1259 1394 1670 399 261 848 446 1321
547 132 28 385 65 503 74 119 8 598 -3 705 -18z"/>
</g>
</svg>
